999
dxfrw 0.5.11
0
SECTION
2
HEADER
9
$ACADVER
1
AC1021
9
$HANDSEED
5
20000
9
$DWGCODEPAGE
3
ANSI_1252
9
$INSBASE
10
0
20
0
30
0
9
$EXTMIN
10
-43.038010787
20
-30.4405842202
30
0
9
$EXTMAX
10
225.473865832
20
194.490824554
30
0
9
$LIMMIN
10
0
20
0
9
$LIMMAX
10
12
20
9
9
$ORTHOMODE
70
0
9
$LTSCALE
40
1
9
$TEXTSTYLE
7
Standard
9
$CLAYER
8
0
9
$DIMASZ
40
2.5
9
$DIMLFAC
40
1
9
$DIMSCALE
40
1
9
$DIMEXO
40
0.625
9
$DIMEXE
40
1.25
9
$DIMTXT
40
2.5
9
$DIMTSZ
40
0
9
$DIMAUNIT
70
0
9
$DIMADEC
70
0
9
$DIMLUNIT
70
2
9
$DIMSTYLE
2
Standard
9
$DIMGAP
40
0.625
9
$DIMTIH
70
1
9
$LUNITS
70
2
9
$LUPREC
70
4
9
$AUNITS
70
0
9
$AUPREC
70
0
9
$SPLINESEGS
70
8
9
$GRIDMODE
70
0
9
$SNAPSTYLE
70
0
9
$PINSBASE
10
0
20
0
30
0
9
$PLIMMIN
10
0
20
0
9
$PLIMMAX
10
12
20
9
9
$INSUNITS
70
4
9
$PSVPSCALE
40
0
0
ENDSEC
0
SECTION
2
CLASSES
0
ENDSEC
0
SECTION
2
TABLES
0
TABLE
2
VPORT
5
8
330
0
100
AcDbSymbolTable
70
1
0
VPORT
5
31
330
2
100
AcDbSymbolTableRecord
100
AcDbViewportTableRecord
2
*ACTIVE
70
0
10
0
20
0
11
1
21
1
12
148.771372351
22
126.328412603
13
0
23
0
14
10
24
10
15
10
25
10
16
0
26
0
36
1
17
0
27
0
37
0
40
332.711093999
41
2.30598052851
42
50
43
0
44
0
50
0
51
0
71
0
72
100
73
1
74
3
75
0
76
0
77
0
78
0
281
0
65
1
110
0
120
0
130
0
111
1
121
0
131
0
112
0
122
1
132
0
79
0
146
0
348
10020
60
7
61
5
292
1
282
1
141
0
142
0
63
250
421
3358443
0
ENDTAB
0
TABLE
2
LTYPE
5
5
330
0
100
AcDbSymbolTable
70
4
0
LTYPE
5
14
330
5
100
AcDbSymbolTableRecord
100
AcDbLinetypeTableRecord
2
ByBlock
70
0
3

72
65
73
0
40
0
0
LTYPE
5
15
330
5
100
AcDbSymbolTableRecord
100
AcDbLinetypeTableRecord
2
ByLayer
70
0
3

72
65
73
0
40
0
0
LTYPE
5
16
330
5
100
AcDbSymbolTableRecord
100
AcDbLinetypeTableRecord
2
Continuous
70
0
3
Solid line
72
65
73
0
40
0
0
LTYPE
5
32
330
5
100
AcDbSymbolTableRecord
100
AcDbLinetypeTableRecord
2
DOT
70
0
3
Dot . . . . . . . . . . . . . . . . . . . . . .
72
65
73
2
40
6.35
49
0
74
0
49
-6.35
74
0
0
LTYPE
5
33
330
5
100
AcDbSymbolTableRecord
100
AcDbLinetypeTableRecord
2
DOT2
70
0
3
Dot (.5x) .....................................
72
65
73
2
40
3.175
49
0
74
0
49
-3.175
74
0
0
LTYPE
5
34
330
5
100
AcDbSymbolTableRecord
100
AcDbLinetypeTableRecord
2
DOTX2
70
0
3
Dot (2x) .  .  .  .  .  .  .  .  .  .  .  .  .
72
65
73
2
40
12.7
49
0
74
0
49
-12.7
74
0
0
LTYPE
5
35
330
5
100
AcDbSymbolTableRecord
100
AcDbLinetypeTableRecord
2
DASHED
70
0
3
Dot . . . . . . . . . . . . . . . . . . . . . .
72
65
73
2
40
19.05
49
12.7
74
0
49
-6.35
74
0
0
LTYPE
5
36
330
5
100
AcDbSymbolTableRecord
100
AcDbLinetypeTableRecord
2
DASHED2
70
0
3
Dashed (.5x) _ _ _ _ _ _ _ _ _ _ _ _ _ _ _ _ _
72
65
73
2
40
9.525
49
6.35
74
0
49
-3.175
74
0
0
LTYPE
5
37
330
5
100
AcDbSymbolTableRecord
100
AcDbLinetypeTableRecord
2
DASHEDX2
70
0
3
Dashed (2x) ____  ____  ____  ____  ____  ___
72
65
73
2
40
38.1
49
25.4
74
0
49
-12.7
74
0
0
LTYPE
5
38
330
5
100
AcDbSymbolTableRecord
100
AcDbLinetypeTableRecord
2
DASHDOT
70
0
3
Dash dot __ . __ . __ . __ . __ . __ . __ . __
72
65
73
4
40
25.4
49
12.7
74
0
49
-6.35
74
0
49
0
74
0
49
-6.35
74
0
0
LTYPE
5
39
330
5
100
AcDbSymbolTableRecord
100
AcDbLinetypeTableRecord
2
DASHDOT2
70
0
3
Dash dot (.5x) _._._._._._._._._._._._._._._.
72
65
73
4
40
12.7
49
6.35
74
0
49
-3.175
74
0
49
0
74
0
49
-3.175
74
0
0
LTYPE
5
3A
330
5
100
AcDbSymbolTableRecord
100
AcDbLinetypeTableRecord
2
DASHDOTX2
70
0
3
Dash dot (2x) ____  .  ____  .  ____  .  ___
72
65
73
4
40
50.8
49
25.4
74
0
49
-12.7
74
0
49
0
74
0
49
-12.7
74
0
0
LTYPE
5
3B
330
5
100
AcDbSymbolTableRecord
100
AcDbLinetypeTableRecord
2
DIVIDE
70
0
3
Divide ____ . . ____ . . ____ . . ____ . . ____
72
65
73
6
40
31.75
49
12.7
74
0
49
-6.35
74
0
49
0
74
0
49
-6.35
74
0
49
0
74
0
49
-6.35
74
0
0
LTYPE
5
3C
330
5
100
AcDbSymbolTableRecord
100
AcDbLinetypeTableRecord
2
DIVIDE2
70
0
3
Divide (.5x) __..__..__..__..__..__..__..__.._
72
65
73
6
40
15.875
49
6.35
74
0
49
-3.175
74
0
49
0
74
0
49
-3.175
74
0
49
0
74
0
49
-3.175
74
0
0
LTYPE
5
3D
330
5
100
AcDbSymbolTableRecord
100
AcDbLinetypeTableRecord
2
DIVIDEX2
70
0
3
Divide (2x) ________  .  .  ________  .  .  _
72
65
73
6
40
63.5
49
25.4
74
0
49
-12.7
74
0
49
0
74
0
49
-12.7
74
0
49
0
74
0
49
-12.7
74
0
0
LTYPE
5
3E
330
5
100
AcDbSymbolTableRecord
100
AcDbLinetypeTableRecord
2
BORDER
70
0
3
Border __ __ . __ __ . __ __ . __ __ . __ __ .
72
65
73
6
40
44.45
49
12.7
74
0
49
-6.35
74
0
49
12.7
74
0
49
-6.35
74
0
49
0
74
0
49
-6.35
74
0
0
LTYPE
5
3F
330
5
100
AcDbSymbolTableRecord
100
AcDbLinetypeTableRecord
2
BORDER2
70
0
3
Border (.5x) __.__.__.__.__.__.__.__.__.__.__.
72
65
73
6
40
22.225
49
6.35
74
0
49
-3.175
74
0
49
6.35
74
0
49
-3.175
74
0
49
0
74
0
49
-3.175
74
0
0
LTYPE
5
40
330
5
100
AcDbSymbolTableRecord
100
AcDbLinetypeTableRecord
2
BORDERX2
70
0
3
Border (2x) ____  ____  .  ____  ____  .  ___
72
65
73
6
40
88.9
49
25.4
74
0
49
-12.7
74
0
49
25.4
74
0
49
-12.7
74
0
49
0
74
0
49
-12.7
74
0
0
LTYPE
5
41
330
5
100
AcDbSymbolTableRecord
100
AcDbLinetypeTableRecord
2
CENTER
70
0
3
Center ____ _ ____ _ ____ _ ____ _ ____ _ ____
72
65
73
4
40
50.8
49
31.75
74
0
49
-6.35
74
0
49
6.35
74
0
49
-6.35
74
0
0
LTYPE
5
42
330
5
100
AcDbSymbolTableRecord
100
AcDbLinetypeTableRecord
2
CENTER2
70
0
3
Center (.5x) ___ _ ___ _ ___ _ ___ _ ___ _ ___
72
65
73
4
40
28.575
49
19.05
74
0
49
-3.175
74
0
49
3.175
74
0
49
-3.175
74
0
0
LTYPE
5
43
330
5
100
AcDbSymbolTableRecord
100
AcDbLinetypeTableRecord
2
CENTERX2
70
0
3
Center (2x) ________  __  ________  __  _____
72
65
73
4
40
101.6
49
63.5
74
0
49
-12.7
74
0
49
12.7
74
0
49
-12.7
74
0
0
ENDTAB
0
TABLE
2
LAYER
5
2
330
0
100
AcDbSymbolTable
70
1
0
LAYER
5
10
330
2
100
AcDbSymbolTableRecord
100
AcDbLayerTableRecord
2
0
70
0
62
255
6
CONTINUOUS
370
25
390
F
0
LAYER
5
44
330
2
100
AcDbSymbolTableRecord
100
AcDbLayerTableRecord
2
BLACK
70
0
62
1
6
CONTINUOUS
370
-3
390
F
0
LAYER
5
45
330
2
100
AcDbSymbolTableRecord
100
AcDbLayerTableRecord
2
WHITE
70
0
62
16
6
CONTINUOUS
370
-3
390
F
0
ENDTAB
0
TABLE
2
STYLE
5
3
330
0
100
AcDbSymbolTable
70
3
0
STYLE
5
46
330
2
100
AcDbSymbolTableRecord
100
AcDbTextStyleTableRecord
2
Standard
70
0
40
0
41
1
50
0
71
0
42
1
3
txt
4

0
ENDTAB
0
TABLE
2
VIEW
5
6
330
0
100
AcDbSymbolTable
70
0
0
ENDTAB
0
TABLE
2
UCS
5
7
330
0
100
AcDbSymbolTable
70
0
0
ENDTAB
0
TABLE
2
APPID
5
9
330
0
100
AcDbSymbolTable
70
1
0
APPID
5
12
330
9
100
AcDbSymbolTableRecord
100
AcDbRegAppTableRecord
2
ACAD
70
0
0
ENDTAB
0
TABLE
2
DIMSTYLE
5
A
330
0
100
AcDbSymbolTable
70
1
100
AcDbDimStyleTable
71
1
0
DIMSTYLE
105
47
330
A
100
AcDbSymbolTableRecord
100
AcDbDimStyleTableRecord
2
Standard
70
0
40
1
41
2.5
42
0.625
43
0.38
44
1.25
45
0
46
0
47
0
48
0
140
2.5
141
0.09
142
0
143
25.4
144
1
145
0
146
1
147
0.625
148
0
71
0
72
0
73
0
74
1
75
0
76
0
77
0
78
0
79
0
170
0
171
2
172
0
173
0
174
0
175
0
176
0
177
0
178
0
179
0
271
4
272
4
273
2
274
2
275
0
276
0
277
2
278
46
279
0
280
0
281
0
282
0
283
1
284
0
285
0
286
0
288
0
289
3
340
Standard
341

371
-2
372
-2
0
ENDTAB
0
TABLE
2
BLOCK_RECORD
5
1
330
0
100
AcDbSymbolTable
70
2
0
BLOCK_RECORD
5
1F
330
1
100
AcDbSymbolTableRecord
100
AcDbBlockTableRecord
2
*Model_Space
70
0
280
1
281
0
0
BLOCK_RECORD
5
1E
330
1
100
AcDbSymbolTableRecord
100
AcDbBlockTableRecord
2
*Paper_Space
70
0
280
1
281
0
0
BLOCK_RECORD
5
48
330
1
100
AcDbSymbolTableRecord
100
AcDbBlockTableRecord
2
*D1
70
0
280
1
281
0
0
BLOCK_RECORD
5
4B
330
1
100
AcDbSymbolTableRecord
100
AcDbBlockTableRecord
2
*D10
70
0
280
1
281
0
0
BLOCK_RECORD
5
4E
330
1
100
AcDbSymbolTableRecord
100
AcDbBlockTableRecord
2
*D13
70
0
280
1
281
0
0
BLOCK_RECORD
5
51
330
1
100
AcDbSymbolTableRecord
100
AcDbBlockTableRecord
2
*D14
70
0
280
1
281
0
0
BLOCK_RECORD
5
54
330
1
100
AcDbSymbolTableRecord
100
AcDbBlockTableRecord
2
*D8
70
0
280
1
281
0
0
BLOCK_RECORD
5
57
330
1
100
AcDbSymbolTableRecord
100
AcDbBlockTableRecord
2
*D11
70
0
280
1
281
0
0
BLOCK_RECORD
5
5A
330
1
100
AcDbSymbolTableRecord
100
AcDbBlockTableRecord
2
*D5
70
0
280
1
281
0
0
BLOCK_RECORD
5
5D
330
1
100
AcDbSymbolTableRecord
100
AcDbBlockTableRecord
2
*D2
70
0
280
1
281
0
0
BLOCK_RECORD
5
60
330
1
100
AcDbSymbolTableRecord
100
AcDbBlockTableRecord
2
*D4
70
0
280
1
281
0
0
BLOCK_RECORD
5
63
330
1
100
AcDbSymbolTableRecord
100
AcDbBlockTableRecord
2
*D3
70
0
280
1
281
0
0
BLOCK_RECORD
5
66
330
1
100
AcDbSymbolTableRecord
100
AcDbBlockTableRecord
2
*D9
70
0
280
1
281
0
0
BLOCK_RECORD
5
69
330
1
100
AcDbSymbolTableRecord
100
AcDbBlockTableRecord
2
*D6
70
0
280
1
281
0
0
BLOCK_RECORD
5
6C
330
1
100
AcDbSymbolTableRecord
100
AcDbBlockTableRecord
2
*D12
70
0
280
1
281
0
0
BLOCK_RECORD
5
6F
330
1
100
AcDbSymbolTableRecord
100
AcDbBlockTableRecord
2
*D7
70
0
280
1
281
0
0
ENDTAB
0
ENDSEC
0
SECTION
2
BLOCKS
0
BLOCK
5
20
330
1F
100
AcDbEntity
8
0
100
AcDbBlockBegin
2
*Model_Space
70
0
10
0
20
0
30
0
3
*Model_Space
1

0
ENDBLK
5
21
330
1F
100
AcDbEntity
8
0
100
AcDbBlockEnd
0
BLOCK
5
1C
330
1B
100
AcDbEntity
8
0
100
AcDbBlockBegin
2
*Paper_Space
70
0
10
0
20
0
30
0
3
*Paper_Space
1

0
ENDBLK
5
1D
330
1F
100
AcDbEntity
8
0
100
AcDbBlockEnd
0
BLOCK
5
49
330
48
100
AcDbEntity
8
0
100
AcDbBlockBegin
2
*D1
70
1
10
0
20
0
3
*D1
1

0
LINE
5
72
100
AcDbEntity
8
0
6
CONTINUOUS
62
7
370
0
100
AcDbLine
10
198.05333551
20
177.434123734
11
198.05333551
21
78.3077388272
0
SOLID
5
73
100
AcDbEntity
8
0
6
CONTINUOUS
62
7
370
0
100
AcDbTrace
10
198.05333551
20
177.434123734
30
0
11
198.469620168
21
174.934123734
31
0
12
197.637050852
22
174.934123734
32
0
13
197.637050852
23
174.934123734
33
0
0
SOLID
5
74
100
AcDbEntity
8
0
6
CONTINUOUS
62
7
370
0
100
AcDbTrace
10
198.05333551
20
-24.5686460797
30
0
11
197.637050852
21
-22.0686460797
31
0
12
198.469620168
22
-22.0686460797
32
0
13
198.469620168
23
-22.0686460797
33
0
0
LINE
5
75
100
AcDbEntity
8
0
6
CONTINUOUS
62
7
370
0
100
AcDbLine
10
198.05333551
20
74.5577388272
11
198.05333551
21
-24.5686460797
0
MTEXT
5
76
100
AcDbEntity
8
0
6
CONTINUOUS
62
7
370
0
100
AcDbMText
10
198.05333551
20
76.4327388272
30
0
40
2.5
41
13.6111111111
71
5
72
1
1
202.0028
7
standard
210
0
220
0
230
1
50
0
73
2
44
1
0
LINE
5
77
100
AcDbEntity
8
0
6
CONTINUOUS
62
7
370
0
100
AcDbLine
10
175.441573734
20
177.434123734
11
199.30333551
21
177.434123734
0
LINE
5
78
100
AcDbEntity
8
0
6
CONTINUOUS
62
7
370
0
100
AcDbLine
10
173.566013343
20
-24.5686460797
11
199.30333551
21
-24.5686460797
0
ENDBLK
5
4A
330
48
100
AcDbEntity
8
0
100
AcDbBlockEnd
0
BLOCK
5
4C
330
4B
100
AcDbEntity
8
0
100
AcDbBlockBegin
2
*D10
70
1
10
0
20
0
3
*D10
1

0
LINE
5
79
100
AcDbEntity
8
0
6
CONTINUOUS
62
7
370
0
100
AcDbLine
10
26.263876
20
140.02185724
11
93.2485582004
21
140.02185724
0
SOLID
5
7A
100
AcDbEntity
8
0
6
CONTINUOUS
62
7
370
0
100
AcDbTrace
10
26.263876
20
140.02185724
30
0
11
28.763876
21
140.438141897
31
0
12
28.763876
22
139.605572582
32
0
13
28.763876
23
139.605572582
33
0
0
SOLID
5
7B
100
AcDbEntity
8
0
6
CONTINUOUS
62
7
370
0
100
AcDbTrace
10
174.816573734
20
140.02185724
30
0
11
172.316573734
21
139.605572582
31
0
12
172.316573734
22
140.438141897
32
0
13
172.316573734
23
140.438141897
33
0
0
LINE
5
7C
100
AcDbEntity
8
0
6
CONTINUOUS
62
7
370
0
100
AcDbLine
10
107.831891534
20
140.02185724
11
174.816573734
21
140.02185724
0
MTEXT
5
7D
100
AcDbEntity
8
0
6
CONTINUOUS
62
7
370
0
100
AcDbMText
10
100.540224867
20
140.02185724
30
0
40
2.5
41
13.3333333333
71
5
72
1
1
148.5527
7
standard
210
0
220
0
230
1
50
0
73
2
44
1
0
LINE
5
7E
100
AcDbEntity
8
0
6
CONTINUOUS
62
7
370
0
100
AcDbLine
10
26.263876
20
-23.5516842202
11
26.263876
21
141.27185724
0
LINE
5
7F
100
AcDbEntity
8
0
6
CONTINUOUS
62
7
370
0
100
AcDbLine
10
174.816573734
20
178.059123734
11
174.816573734
21
141.27185724
0
ENDBLK
5
4D
330
4B
100
AcDbEntity
8
0
100
AcDbBlockEnd
0
BLOCK
5
4F
330
4E
100
AcDbEntity
8
0
100
AcDbBlockBegin
2
*D13
70
1
10
0
20
0
3
*D13
1

0
LINE
5
80
100
AcDbEntity
8
0
6
CONTINUOUS
62
7
370
0
100
AcDbLine
10
174.816573734
20
192.510862892
11
154.672159089
21
192.510862892
0
SOLID
5
81
100
AcDbEntity
8
0
6
CONTINUOUS
62
7
370
0
100
AcDbTrace
10
174.816573734
20
192.510862892
30
0
11
172.316573734
21
192.094578234
31
0
12
172.316573734
22
192.927147549
32
0
13
172.316573734
23
192.927147549
33
0
0
SOLID
5
82
100
AcDbEntity
8
0
6
CONTINUOUS
62
7
370
0
100
AcDbTrace
10
121.3333
20
192.510862892
30
0
11
123.8333
21
192.927147549
31
0
12
123.8333
22
192.094578234
32
0
13
123.8333
23
192.094578234
33
0
0
LINE
5
83
100
AcDbEntity
8
0
6
CONTINUOUS
62
7
370
0
100
AcDbLine
10
141.477714645
20
192.510862892
11
121.3333
21
192.510862892
0
MTEXT
5
84
100
AcDbEntity
8
0
6
CONTINUOUS
62
7
370
0
100
AcDbMText
10
148.074936867
20
192.510862892
30
0
40
2.5
41
11.9444444444
71
5
72
1
1
53.4833
7
standard
210
0
220
0
230
1
50
0
73
2
44
1
0
LINE
5
85
100
AcDbEntity
8
0
6
CONTINUOUS
62
7
370
0
100
AcDbLine
10
174.816573734
20
178.059123734
11
174.816573734
21
193.760862892
0
LINE
5
86
100
AcDbEntity
8
0
6
CONTINUOUS
62
7
370
0
100
AcDbLine
10
121.3333
20
179.878
11
121.3333
21
193.760862892
0
ENDBLK
5
50
330
4E
100
AcDbEntity
8
0
100
AcDbBlockEnd
0
BLOCK
5
52
330
51
100
AcDbEntity
8
0
100
AcDbBlockBegin
2
*D14
70
1
10
0
20
0
3
*D14
1

0
LINE
5
87
100
AcDbEntity
8
0
6
CONTINUOUS
62
7
370
0
100
AcDbLine
10
187.779972121
20
172.434123734
11
187.779972121
21
176.468561867
0
SOLID
5
88
100
AcDbEntity
8
0
6
CONTINUOUS
62
7
370
0
100
AcDbTrace
10
187.779972121
20
177.434123734
30
0
11
188.196256779
21
174.934123734
31
0
12
187.363687463
22
174.934123734
32
0
13
187.363687463
23
174.934123734
33
0
0
SOLID
5
89
100
AcDbEntity
8
0
6
CONTINUOUS
62
7
370
0
100
AcDbTrace
10
187.779972121
20
179.253
30
0
11
187.363687463
21
181.753
31
0
12
188.196256779
22
181.753
32
0
13
188.196256779
23
181.753
33
0
0
LINE
5
8A
100
AcDbEntity
8
0
6
CONTINUOUS
62
7
370
0
100
AcDbLine
10
187.779972121
20
180.218561867
11
187.779972121
21
184.253
0
MTEXT
5
8B
100
AcDbEntity
8
0
6
CONTINUOUS
62
7
370
0
100
AcDbMText
10
193.61996581
20
178.343561867
30
0
40
2.5
41
8.61111111111
71
5
72
1
1
1.8189
7
standard
210
0
220
0
230
1
50
0
73
2
44
1
0
LINE
5
8C
100
AcDbEntity
8
0
6
CONTINUOUS
62
7
370
0
100
AcDbLine
10
175.441573734
20
177.434123734
11
189.029972121
21
177.434123734
0
LINE
5
8D
100
AcDbEntity
8
0
6
CONTINUOUS
62
7
370
0
100
AcDbLine
10
121.9583
20
179.253
11
189.029972121
21
179.253
0
ENDBLK
5
53
330
51
100
AcDbEntity
8
0
100
AcDbBlockEnd
0
BLOCK
5
55
330
54
100
AcDbEntity
8
0
100
AcDbBlockBegin
2
*D8
70
1
10
0
20
0
3
*D8
1

0
LINE
5
8E
100
AcDbEntity
8
0
6
CONTINUOUS
62
7
370
0
100
AcDbLine
10
-5.44924317515
20
53.1193762658
11
-5.44924317515
21
113.40175
0
SOLID
5
8F
100
AcDbEntity
8
0
6
CONTINUOUS
62
7
370
0
100
AcDbTrace
10
-5.44924317515
20
53.1193762658
30
0
11
-5.86552783292
21
55.6193762658
31
0
12
-5.03295851738
22
55.6193762658
32
0
13
-5.03295851738
23
55.6193762658
33
0
0
SOLID
5
90
100
AcDbEntity
8
0
6
CONTINUOUS
62
7
370
0
100
AcDbTrace
10
-5.44924317515
20
177.434123734
30
0
11
-5.03295851738
21
174.934123734
31
0
12
-5.86552783292
22
174.934123734
32
0
13
-5.86552783292
23
174.934123734
33
0
0
LINE
5
91
100
AcDbEntity
8
0
6
CONTINUOUS
62
7
370
0
100
AcDbLine
10
-5.44924317515
20
117.15175
11
-5.44924317515
21
177.434123734
0
MTEXT
5
92
100
AcDbEntity
8
0
6
CONTINUOUS
62
7
370
0
100
AcDbMText
10
-5.44924317515
20
115.27675
30
0
40
2.5
41
13.0555555556
71
5
72
1
1
124.3147
7
standard
210
0
220
0
230
1
50
0
73
2
44
1
0
LINE
5
93
100
AcDbEntity
8
0
6
CONTINUOUS
62
7
370
0
100
AcDbLine
10
25.638876
20
53.1193762658
11
-6.69924317515
21
53.1193762658
0
LINE
5
94
100
AcDbEntity
8
0
6
CONTINUOUS
62
7
370
0
100
AcDbLine
10
174.191573734
20
177.434123734
11
-6.69924317515
21
177.434123734
0
ENDBLK
5
56
330
54
100
AcDbEntity
8
0
100
AcDbBlockEnd
0
BLOCK
5
58
330
57
100
AcDbEntity
8
0
100
AcDbBlockBegin
2
*D11
70
1
10
0
20
0
3
*D11
1

0
LINE
5
95
100
AcDbEntity
8
0
6
CONTINUOUS
62
7
370
0
100
AcDbLine
10
174.816573734
20
44.3490683511
11
147.062671312
21
44.3490683511
0
SOLID
5
96
100
AcDbEntity
8
0
6
CONTINUOUS
62
7
370
0
100
AcDbTrace
10
174.816573734
20
44.3490683511
30
0
11
172.316573734
21
43.9327836933
31
0
12
172.316573734
22
44.7653530089
32
0
13
172.316573734
23
44.7653530089
33
0
0
SOLID
5
97
100
AcDbEntity
8
0
6
CONTINUOUS
62
7
370
0
100
AcDbTrace
10
106.66988
20
44.3490683511
30
0
11
109.16988
21
44.7653530089
31
0
12
109.16988
22
43.9327836933
32
0
13
109.16988
23
43.9327836933
33
0
0
LINE
5
98
100
AcDbEntity
8
0
6
CONTINUOUS
62
7
370
0
100
AcDbLine
10
134.423782423
20
44.3490683511
11
106.66988
21
44.3490683511
0
MTEXT
5
99
100
AcDbEntity
8
0
6
CONTINUOUS
62
7
370
0
100
AcDbMText
10
140.743226867
20
44.3490683511
30
0
40
2.5
41
11.3888888889
71
5
72
1
1
68.1467
7
standard
210
0
220
0
230
1
50
0
73
2
44
1
0
LINE
5
9A
100
AcDbEntity
8
0
6
CONTINUOUS
62
7
370
0
100
AcDbLine
10
174.816573734
20
176.809123734
11
174.816573734
21
43.0990683511
0
LINE
5
9B
100
AcDbEntity
8
0
6
CONTINUOUS
62
7
370
0
100
AcDbLine
10
106.66988
20
49.088
11
106.66988
21
43.0990683511
0
ENDBLK
5
59
330
57
100
AcDbEntity
8
0
100
AcDbBlockEnd
0
BLOCK
5
5B
330
5A
100
AcDbEntity
8
0
100
AcDbBlockBegin
2
*D5
70
1
10
0
20
0
3
*D5
1

0
LINE
5
9C
100
AcDbEntity
8
0
6
CONTINUOUS
62
7
370
0
100
AcDbLine
10
174.816573734
20
169.826848172
11
107.831891667
21
169.826848172
0
SOLID
5
9D
100
AcDbEntity
8
0
6
CONTINUOUS
62
7
370
0
100
AcDbTrace
10
174.816573734
20
169.826848172
30
0
11
172.316573734
21
169.410563514
31
0
12
172.316573734
22
170.243132829
32
0
13
172.316573734
23
170.243132829
33
0
0
SOLID
5
9E
100
AcDbEntity
8
0
6
CONTINUOUS
62
7
370
0
100
AcDbTrace
10
26.2638762658
20
169.826848172
30
0
11
28.7638762658
21
170.243132829
31
0
12
28.7638762658
22
169.410563514
32
0
13
28.7638762658
23
169.410563514
33
0
0
LINE
5
9F
100
AcDbEntity
8
0
6
CONTINUOUS
62
7
370
0
100
AcDbLine
10
93.2485583333
20
169.826848172
11
26.2638762658
21
169.826848172
0
MTEXT
5
A0
100
AcDbEntity
8
0
6
CONTINUOUS
62
7
370
0
100
AcDbMText
10
100.540225
20
169.826848172
30
0
40
2.5
41
13.3333333333
71
5
72
1
1
148.5527
7
standard
210
0
220
0
230
1
50
0
73
2
44
1
0
LINE
5
A1
100
AcDbEntity
8
0
6
CONTINUOUS
62
7
370
0
100
AcDbLine
10
174.816573734
20
176.809123734
11
174.816573734
21
168.576848172
0
LINE
5
A2
100
AcDbEntity
8
0
6
CONTINUOUS
62
7
370
0
100
AcDbLine
10
26.2638762658
20
176.809123734
11
26.2638762658
21
168.576848172
0
ENDBLK
5
5C
330
5A
100
AcDbEntity
8
0
100
AcDbBlockEnd
0
BLOCK
5
5E
330
5D
100
AcDbEntity
8
0
100
AcDbBlockBegin
2
*D2
70
1
10
0
20
0
3
*D2
1

0
LINE
5
A3
100
AcDbEntity
8
0
6
CONTINUOUS
62
7
370
0
100
AcDbLine
10
179.816573734
20
1.0868918283
11
179.087126872
21
1.0868918283
0
SOLID
5
A4
100
AcDbEntity
8
0
6
CONTINUOUS
62
7
370
0
100
AcDbTrace
10
174.816573734
20
1.0868918283
30
0
11
177.316573734
21
1.50317648607
31
0
12
177.316573734
22
0.670607170525
32
0
13
177.316573734
23
0.670607170525
33
0
0
SOLID
5
A5
100
AcDbEntity
8
0
6
CONTINUOUS
62
7
370
0
100
AcDbTrace
10
172.941013343
20
1.0868918283
30
0
11
170.441013343
21
0.670607170525
31
0
12
170.441013343
22
1.50317648607
32
0
13
170.441013343
23
1.50317648607
33
0
0
LINE
5
A6
100
AcDbEntity
8
0
6
CONTINUOUS
62
7
370
0
100
AcDbLine
10
168.670460205
20
1.0868918283
11
167.941013343
21
1.0868918283
0
MTEXT
5
A7
100
AcDbEntity
8
0
6
CONTINUOUS
62
7
370
0
100
AcDbMText
10
180.024907067
20
1.0868918283
30
0
40
2.5
41
9.16666666667
71
5
72
1
1
1.8756
7
standard
210
0
220
0
230
1
50
0
73
2
44
1
0
LINE
5
A8
100
AcDbEntity
8
0
6
CONTINUOUS
62
7
370
0
100
AcDbLine
10
174.816573734
20
176.809123734
11
174.816573734
21
-0.163108171702
0
LINE
5
A9
100
AcDbEntity
8
0
6
CONTINUOUS
62
7
370
0
100
AcDbLine
10
172.941013343
20
-25.1936460797
11
172.941013343
21
-0.163108171702
0
ENDBLK
5
5F
330
5D
100
AcDbEntity
8
0
100
AcDbBlockEnd
0
BLOCK
5
61
330
60
100
AcDbEntity
8
0
100
AcDbBlockBegin
2
*D4
70
1
10
0
20
0
3
*D4
1

0
LINE
5
AA
100
AcDbEntity
8
0
6
CONTINUOUS
62
7
370
0
100
AcDbLine
10
12.433751384
20
-23.4405842202
11
12.433751384
21
74.7537078899
0
SOLID
5
AB
100
AcDbEntity
8
0
6
CONTINUOUS
62
7
370
0
100
AcDbTrace
10
12.433751384
20
-23.4405842202
30
0
11
12.0174667262
21
-20.9405842202
31
0
12
12.8500360418
22
-20.9405842202
32
0
13
12.8500360418
23
-20.9405842202
33
0
0
SOLID
5
AC
100
AcDbEntity
8
0
6
CONTINUOUS
62
7
370
0
100
AcDbTrace
10
12.433751384
20
176.698
30
0
11
12.8500360418
21
174.198
31
0
12
12.0174667262
22
174.198
32
0
13
12.0174667262
23
174.198
33
0
0
LINE
5
AD
100
AcDbEntity
8
0
6
CONTINUOUS
62
7
370
0
100
AcDbLine
10
12.433751384
20
78.5037078899
11
12.433751384
21
176.698
0
MTEXT
5
AE
100
AcDbEntity
8
0
6
CONTINUOUS
62
7
370
0
100
AcDbMText
10
12.433751384
20
76.6287078899
30
0
40
2.5
41
13.0555555556
71
5
72
1
1
200.1386
7
standard
210
0
220
0
230
1
50
0
73
2
44
1
0
LINE
5
AF
100
AcDbEntity
8
0
6
CONTINUOUS
62
7
370
0
100
AcDbLine
10
19.375
20
-23.4405842202
11
11.183751384
21
-23.4405842202
0
LINE
5
B0
100
AcDbEntity
8
0
6
CONTINUOUS
62
7
370
0
100
AcDbLine
10
19.375
20
176.698
11
11.183751384
21
176.698
0
ENDBLK
5
62
330
60
100
AcDbEntity
8
0
100
AcDbBlockEnd
0
BLOCK
5
64
330
63
100
AcDbEntity
8
0
100
AcDbBlockBegin
2
*D3
70
1
10
0
20
0
3
*D3
1

0
LINE
5
B1
100
AcDbEntity
8
0
6
CONTINUOUS
62
7
370
0
100
AcDbLine
10
27
20
189.23563082
11
93.2517333333
21
189.23563082
0
SOLID
5
B2
100
AcDbEntity
8
0
6
CONTINUOUS
62
7
370
0
100
AcDbTrace
10
27
20
189.23563082
30
0
11
29.5
21
189.651915478
31
0
12
29.5
22
188.819346162
32
0
13
29.5
23
188.819346162
33
0
0
SOLID
5
B3
100
AcDbEntity
8
0
6
CONTINUOUS
62
7
370
0
100
AcDbTrace
10
174.0868
20
189.23563082
30
0
11
171.5868
21
188.819346162
31
0
12
171.5868
22
189.651915478
32
0
13
171.5868
23
189.651915478
33
0
0
LINE
5
B4
100
AcDbEntity
8
0
6
CONTINUOUS
62
7
370
0
100
AcDbLine
10
107.835066667
20
189.23563082
11
174.0868
21
189.23563082
0
MTEXT
5
B5
100
AcDbEntity
8
0
6
CONTINUOUS
62
7
370
0
100
AcDbMText
10
100.5434
20
189.23563082
30
0
40
2.5
41
13.3333333333
71
5
72
1
1
147.0868
7
standard
210
0
220
0
230
1
50
0
73
2
44
1
0
LINE
5
B6
100
AcDbEntity
8
0
6
CONTINUOUS
62
7
370
0
100
AcDbLine
10
27
20
184.323
11
27
21
190.48563082
0
LINE
5
B7
100
AcDbEntity
8
0
6
CONTINUOUS
62
7
370
0
100
AcDbLine
10
174.0868
20
184.323
11
174.0868
21
190.48563082
0
ENDBLK
5
65
330
63
100
AcDbEntity
8
0
100
AcDbBlockEnd
0
BLOCK
5
67
330
66
100
AcDbEntity
8
0
100
AcDbBlockBegin
2
*D9
70
1
10
0
20
0
3
*D9
1

0
LINE
5
B8
100
AcDbEntity
8
0
6
CONTINUOUS
62
7
370
0
100
AcDbLine
10
-28.4308339573
20
177.434123734
11
-28.4308339573
21
78.503719757
0
SOLID
5
B9
100
AcDbEntity
8
0
6
CONTINUOUS
62
7
370
0
100
AcDbTrace
10
-28.4308339573
20
177.434123734
30
0
11
-28.0145492995
21
174.934123734
31
0
12
-28.8471186151
22
174.934123734
32
0
13
-28.8471186151
23
174.934123734
33
0
0
SOLID
5
BA
100
AcDbEntity
8
0
6
CONTINUOUS
62
7
370
0
100
AcDbTrace
10
-28.4308339573
20
-24.1766842202
30
0
11
-28.8471186151
21
-21.6766842202
31
0
12
-28.0145492995
22
-21.6766842202
32
0
13
-28.0145492995
23
-21.6766842202
33
0
0
LINE
5
BB
100
AcDbEntity
8
0
6
CONTINUOUS
62
7
370
0
100
AcDbLine
10
-28.4308339573
20
74.753719757
11
-28.4308339573
21
-24.1766842202
0
MTEXT
5
BC
100
AcDbEntity
8
0
6
CONTINUOUS
62
7
370
0
100
AcDbMText
10
-28.4308339573
20
76.628719757
30
0
40
2.5
41
12.5
71
5
72
1
1
201.6108
7
standard
210
0
220
0
230
1
50
0
73
2
44
1
0
LINE
5
BD
100
AcDbEntity
8
0
6
CONTINUOUS
62
7
370
0
100
AcDbLine
10
174.191573734
20
177.434123734
11
-29.6808339573
21
177.434123734
0
LINE
5
BE
100
AcDbEntity
8
0
6
CONTINUOUS
62
7
370
0
100
AcDbLine
10
25.638876
20
-24.1766842202
11
-29.6808339573
21
-24.1766842202
0
ENDBLK
5
68
330
66
100
AcDbEntity
8
0
100
AcDbBlockEnd
0
BLOCK
5
6A
330
69
100
AcDbEntity
8
0
100
AcDbBlockBegin
2
*D6
70
1
10
0
20
0
3
*D6
1

0
LINE
5
BF
100
AcDbEntity
8
0
6
CONTINUOUS
62
7
370
0
100
AcDbLine
10
215.12664361
20
172.434123734
11
215.12664361
21
175.559123734
0
SOLID
5
C0
100
AcDbEntity
8
0
6
CONTINUOUS
62
7
370
0
100
AcDbTrace
10
215.12664361
20
177.434123734
30
0
11
215.542928268
21
174.934123734
31
0
12
214.710358952
22
174.934123734
32
0
13
214.710358952
23
174.934123734
33
0
0
SOLID
5
C1
100
AcDbEntity
8
0
6
CONTINUOUS
62
7
370
0
100
AcDbTrace
10
215.12664361
20
177.434123734
30
0
11
214.710358952
21
179.934123734
31
0
12
215.542928268
22
179.934123734
32
0
13
215.542928268
23
179.934123734
33
0
0
LINE
5
C2
100
AcDbEntity
8
0
6
CONTINUOUS
62
7
370
0
100
AcDbLine
10
215.12664361
20
179.309123734
11
215.12664361
21
182.434123734
0
MTEXT
5
C3
100
AcDbEntity
8
0
6
CONTINUOUS
62
7
370
0
100
AcDbMText
10
220.612754721
20
177.434123734
30
0
40
2.5
41
9.72222222222
71
5
72
1
1
0.0000
7
standard
210
0
220
0
230
1
50
0
73
2
44
1
0
LINE
5
C4
100
AcDbEntity
8
0
6
CONTINUOUS
62
7
370
0
100
AcDbLine
10
26.8888762658
20
177.434123734
11
216.37664361
21
177.434123734
0
LINE
5
C5
100
AcDbEntity
8
0
6
CONTINUOUS
62
7
370
0
100
AcDbLine
10
175.441573734
20
177.434123734
11
216.37664361
21
177.434123734
0
ENDBLK
5
6B
330
69
100
AcDbEntity
8
0
100
AcDbBlockEnd
0
BLOCK
5
6D
330
6C
100
AcDbEntity
8
0
100
AcDbBlockBegin
2
*D12
70
1
10
0
20
0
3
*D12
1

0
LINE
5
C6
100
AcDbEntity
8
0
6
CONTINUOUS
62
7
370
0
100
AcDbLine
10
144.74552184
20
49.713
11
144.74552184
21
111.698561867
0
SOLID
5
C7
100
AcDbEntity
8
0
6
CONTINUOUS
62
7
370
0
100
AcDbTrace
10
144.74552184
20
49.713
30
0
11
144.329237182
21
52.213
31
0
12
145.161806498
22
52.213
32
0
13
145.161806498
23
52.213
33
0
0
SOLID
5
C8
100
AcDbEntity
8
0
6
CONTINUOUS
62
7
370
0
100
AcDbTrace
10
144.74552184
20
177.434123734
30
0
11
145.161806498
21
174.934123734
31
0
12
144.329237182
22
174.934123734
32
0
13
144.329237182
23
174.934123734
33
0
0
LINE
5
C9
100
AcDbEntity
8
0
6
CONTINUOUS
62
7
370
0
100
AcDbLine
10
144.74552184
20
115.448561867
11
144.74552184
21
177.434123734
0
MTEXT
5
CA
100
AcDbEntity
8
0
6
CONTINUOUS
62
7
370
0
100
AcDbMText
10
144.74552184
20
113.573561867
30
0
40
2.5
41
11.9444444444
71
5
72
1
1
127.7211
7
standard
210
0
220
0
230
1
50
0
73
2
44
1
0
LINE
5
CB
100
AcDbEntity
8
0
6
CONTINUOUS
62
7
370
0
100
AcDbLine
10
107.29488
20
49.713
11
145.99552184
21
49.713
0
LINE
5
CC
100
AcDbEntity
8
0
6
CONTINUOUS
62
7
370
0
100
AcDbLine
10
175.441573734
20
177.434123734
11
145.99552184
21
177.434123734
0
ENDBLK
5
6E
330
6C
100
AcDbEntity
8
0
100
AcDbBlockEnd
0
BLOCK
5
70
330
6F
100
AcDbEntity
8
0
100
AcDbBlockBegin
2
*D7
70
1
10
0
20
0
3
*D7
1

0
LINE
5
CD
100
AcDbEntity
8
0
6
CONTINUOUS
62
7
370
0
100
AcDbLine
10
174.816573734
20
115.61872476
11
107.831891534
21
115.61872476
0
SOLID
5
CE
100
AcDbEntity
8
0
6
CONTINUOUS
62
7
370
0
100
AcDbTrace
10
174.816573734
20
115.61872476
30
0
11
172.316573734
21
115.202440102
31
0
12
172.316573734
22
116.035009417
32
0
13
172.316573734
23
116.035009417
33
0
0
SOLID
5
CF
100
AcDbEntity
8
0
6
CONTINUOUS
62
7
370
0
100
AcDbTrace
10
26.263876
20
115.61872476
30
0
11
28.763876
21
116.035009417
31
0
12
28.763876
22
115.202440102
32
0
13
28.763876
23
115.202440102
33
0
0
LINE
5
D0
100
AcDbEntity
8
0
6
CONTINUOUS
62
7
370
0
100
AcDbLine
10
93.2485582004
20
115.61872476
11
26.263876
21
115.61872476
0
MTEXT
5
D1
100
AcDbEntity
8
0
6
CONTINUOUS
62
7
370
0
100
AcDbMText
10
100.540224867
20
115.61872476
30
0
40
2.5
41
13.3333333333
71
5
72
1
1
148.5527
7
standard
210
0
220
0
230
1
50
0
73
2
44
1
0
LINE
5
D2
100
AcDbEntity
8
0
6
CONTINUOUS
62
7
370
0
100
AcDbLine
10
174.816573734
20
176.809123734
11
174.816573734
21
114.36872476
0
LINE
5
D3
100
AcDbEntity
8
0
6
CONTINUOUS
62
7
370
0
100
AcDbLine
10
26.263876
20
52.4943762658
11
26.263876
21
114.36872476
0
ENDBLK
5
71
330
6F
100
AcDbEntity
8
0
100
AcDbBlockEnd
0
ENDSEC
0
SECTION
2
ENTITIES
0
CIRCLE
5
D4
100
AcDbEntity
8
0
6
ByLayer
62
1
370
-1
100
AcDbCircle
10
216.558534729
20
69.8984851224
40
1.5
0
CIRCLE
5
D5
100
AcDbEntity
8
0
6
ByLayer
62
1
370
-1
100
AcDbCircle
10
106.66988
20
49.713
40
1.5
0
CIRCLE
5
D6
100
AcDbEntity
8
0
6
ByLayer
62
1
370
-1
100
AcDbCircle
10
26.263876
20
53.1193762658
40
1.5
0
LINE
5
D7
100
AcDbEntity
8
0
6
ByLayer
62
1
370
-1
100
AcDbLine
10
181.0868
20
176.698
11
181.0868
21
97.8093022929
0
LINE
5
D8
100
AcDbEntity
8
0
6
ByLayer
62
1
370
-1
100
AcDbLine
10
27
20
183.698
11
174.0868
21
183.698
0
LINE
5
D9
100
AcDbEntity
8
0
6
ByLayer
62
1
370
-1
100
AcDbLine
10
185.128679547
20
91.4650510854
11
218.538914615
21
75.8869321752
0
CIRCLE
5
DA
100
AcDbEntity
8
0
6
ByLayer
62
1
370
-1
100
AcDbCircle
10
26.2638762658
20
177.434123734
40
1.5
0
CIRCLE
5
DB
100
AcDbEntity
8
0
6
ByLayer
62
1
370
-1
100
AcDbCircle
10
121.3333
20
179.253
40
1.5
0
CIRCLE
5
DC
100
AcDbEntity
8
0
6
ByLayer
62
1
370
-1
100
AcDbCircle
10
174.816573734
20
177.434123734
40
1.5
0
ARC
5
DD
100
AcDbEntity
8
0
6
ByLayer
62
1
370
-1
100
AcDbCircle
10
27
20
176.698
40
7
100
AcDbArc
50
90
51
180
0
ARC
5
DE
100
AcDbEntity
8
0
6
ByLayer
62
1
370
-1
100
AcDbCircle
10
174.0868
20
176.698
40
7
100
AcDbArc
50
0
51
90
0
ARC
5
DF
100
AcDbEntity
8
0
6
ByLayer
62
1
370
-1
100
AcDbCircle
10
215.580794162
20
69.5426809677
40
7
100
AcDbArc
50
335.000187555
51
65.0018728803
0
ARC
5
E0
100
AcDbEntity
8
0
6
ByLayer
62
1
370
-1
100
AcDbCircle
10
188.0868
20
97.8093022929
40
7
100
AcDbArc
50
180
51
245.00187288
0
LINE
5
E1
100
AcDbEntity
8
0
6
ByLayer
62
1
370
-1
100
AcDbLine
10
196
20
16
11
196
21
16
0
LINE
5
E2
100
AcDbEntity
8
0
6
ByLayer
62
1
370
-1
100
AcDbLine
10
196
20
16
11
196
21
16
0
CIRCLE
5
E3
100
AcDbEntity
8
0
6
ByLayer
62
1
370
-1
100
AcDbCircle
10
154.8078
20
157.0842
40
1.5
0
CIRCLE
5
E4
100
AcDbEntity
8
0
6
ByLayer
62
1
370
-1
100
AcDbCircle
10
44.8078
20
157.0842
40
1.5
0
LINE
5
E5
100
AcDbEntity
8
0
6
ByLayer
62
1
370
-1
100
AcDbLine
10
20
20
-23.4405842202
11
20
21
176.698
0
LINE
5
E6
100
AcDbEntity
8
0
6
ByLayer
62
1
370
-1
100
AcDbLine
10
172.222356084
20
-30.4405842202
11
27
21
-30.4405842202
0
ARC
5
E7
100
AcDbEntity
8
0
6
ByLayer
62
1
370
-1
100
AcDbCircle
10
27
20
-23.4405842202
40
7
100
AcDbArc
50
180
51
270
0
ARC
5
E8
100
AcDbEntity
8
0
6
ByLayer
62
1
370
-1
100
AcDbCircle
10
172.222356084
20
-23.4405842202
40
7
100
AcDbArc
50
270
51
335.000187555
0
CIRCLE
5
E9
100
AcDbEntity
8
0
6
ByLayer
62
1
370
-1
100
AcDbCircle
10
26.263876
20
-24.1766842202
40
1.5
0
LINE
5
EA
100
AcDbEntity
8
0
6
ByLayer
62
1
370
-1
100
AcDbLine
10
221.924958355
20
66.5843739028
11
178.566520277
21
-26.3988912851
0
CIRCLE
5
EB
100
AcDbEntity
8
0
6
ByLayer
62
1
370
-1
100
AcDbCircle
10
172.941013343
20
-24.5686460797
40
1.5
0
DIMENSION
5
EC
100
AcDbEntity
8
0
6
ByLayer
62
256
370
-1
100
AcDbDimension
2
*D1
10
198.05333551
20
-24.5686460797
30
0
11
198.05333551
21
76.4327388272
31
0
70
32
71
5
3
Standard
53
0
210
0
220
0
230
1
100
AcDbAlignedDimension
13
174.816573734
23
177.434123734
33
0
14
172.941013343
24
-24.5686460797
34
0
50
90
100
AcDbRotatedDimension
0
DIMENSION
5
ED
100
AcDbEntity
8
0
6
ByLayer
62
256
370
-1
100
AcDbDimension
2
*D2
10
172.941013343
20
1.0868918283
30
0
11
173.878793538
21
1.0868918283
31
0
70
32
71
5
3
Standard
53
0
210
0
220
0
230
1
100
AcDbAlignedDimension
13
174.816573734
23
177.434123734
33
0
14
172.941013343
24
-24.5686460797
34
0
100
AcDbRotatedDimension
0
DIMENSION
5
EE
100
AcDbEntity
8
0
6
ByLayer
62
256
370
-1
100
AcDbDimension
2
*D3
10
174.0868
20
189.23563082
30
0
11
100.5434
21
189.23563082
31
0
70
32
71
5
3
Standard
53
0
210
0
220
0
230
1
100
AcDbAlignedDimension
13
27
23
183.698
33
0
14
174.0868
24
183.698
34
0
100
AcDbRotatedDimension
0
DIMENSION
5
EF
100
AcDbEntity
8
0
6
ByLayer
62
256
370
-1
100
AcDbDimension
2
*D4
10
12.433751384
20
176.698
30
0
11
12.433751384
21
76.6287078899
31
0
70
32
71
5
3
Standard
53
0
210
0
220
0
230
1
100
AcDbAlignedDimension
13
20
23
-23.4405842202
33
0
14
20
24
176.698
34
0
50
90
100
AcDbRotatedDimension
0
DIMENSION
5
F0
100
AcDbEntity
8
0
6
ByLayer
62
256
370
-1
100
AcDbDimension
2
*D5
10
26.2638762658
20
169.826848172
30
0
11
100.540225
21
169.826848172
31
0
70
32
71
5
3
Standard
53
0
210
0
220
0
230
1
100
AcDbAlignedDimension
13
174.816573734
23
177.434123734
33
0
14
26.2638762658
24
177.434123734
34
0
100
AcDbRotatedDimension
0
DIMENSION
5
F1
100
AcDbEntity
8
0
6
ByLayer
62
256
370
-1
100
AcDbDimension
2
*D6
10
215.12664361
20
177.434123734
30
0
11
215.12664361
21
177.434123734
31
0
70
32
71
5
3
Standard
53
0
210
0
220
0
230
1
100
AcDbAlignedDimension
13
26.2638762658
23
177.434123734
33
0
14
174.816573734
24
177.434123734
34
0
50
90
100
AcDbRotatedDimension
0
DIMENSION
5
F2
100
AcDbEntity
8
0
6
ByLayer
62
256
370
-1
100
AcDbDimension
2
*D7
10
26.263876
20
115.61872476
30
0
11
100.540224867
21
115.61872476
31
0
70
32
71
5
3
Standard
53
0
210
0
220
0
230
1
100
AcDbAlignedDimension
13
174.816573734
23
177.434123734
33
0
14
26.263876
24
53.1193762658
34
0
100
AcDbRotatedDimension
0
DIMENSION
5
F3
100
AcDbEntity
8
0
6
ByLayer
62
256
370
-1
100
AcDbDimension
2
*D8
10
-5.44924317515
20
177.434123734
30
0
11
-5.44924317515
21
115.27675
31
0
70
32
71
5
3
Standard
53
0
210
0
220
0
230
1
100
AcDbAlignedDimension
13
26.263876
23
53.1193762658
33
0
14
174.816573734
24
177.434123734
34
0
50
90
100
AcDbRotatedDimension
0
DIMENSION
5
F4
100
AcDbEntity
8
0
6
ByLayer
62
256
370
-1
100
AcDbDimension
2
*D9
10
-28.4308339573
20
-24.1766842202
30
0
11
-28.4308339573
21
76.628719757
31
0
70
32
71
5
3
Standard
53
0
210
0
220
0
230
1
100
AcDbAlignedDimension
13
174.816573734
23
177.434123734
33
0
14
26.263876
24
-24.1766842202
34
0
50
90
100
AcDbRotatedDimension
0
DIMENSION
5
F5
100
AcDbEntity
8
0
6
ByLayer
62
256
370
-1
100
AcDbDimension
2
*D10
10
174.816573734
20
140.02185724
30
0
11
100.540224867
21
140.02185724
31
0
70
32
71
5
3
Standard
53
0
210
0
220
0
230
1
100
AcDbAlignedDimension
13
26.263876
23
-24.1766842202
33
0
14
174.816573734
24
177.434123734
34
0
100
AcDbRotatedDimension
0
DIMENSION
5
F6
100
AcDbEntity
8
0
6
ByLayer
62
256
370
-1
100
AcDbDimension
2
*D11
10
106.66988
20
44.3490683511
30
0
11
140.743226867
21
44.3490683511
31
0
70
32
71
5
3
Standard
53
0
210
0
220
0
230
1
100
AcDbAlignedDimension
13
174.816573734
23
177.434123734
33
0
14
106.66988
24
49.713
34
0
100
AcDbRotatedDimension
0
DIMENSION
5
F7
100
AcDbEntity
8
0
6
ByLayer
62
256
370
-1
100
AcDbDimension
2
*D12
10
144.74552184
20
177.434123734
30
0
11
144.74552184
21
113.573561867
31
0
70
32
71
5
3
Standard
53
0
210
0
220
0
230
1
100
AcDbAlignedDimension
13
106.66988
23
49.713
33
0
14
174.816573734
24
177.434123734
34
0
50
90
100
AcDbRotatedDimension
0
DIMENSION
5
F8
100
AcDbEntity
8
0
6
ByLayer
62
256
370
-1
100
AcDbDimension
2
*D13
10
121.3333
20
192.510862892
30
0
11
148.074936867
21
192.510862892
31
0
70
32
71
5
3
Standard
53
0
210
0
220
0
230
1
100
AcDbAlignedDimension
13
174.816573734
23
177.434123734
33
0
14
121.3333
24
179.253
34
0
100
AcDbRotatedDimension
0
DIMENSION
5
F9
100
AcDbEntity
8
0
6
ByLayer
62
256
370
-1
100
AcDbDimension
2
*D14
10
187.779972121
20
179.253
30
0
11
187.779972121
21
178.343561867
31
0
70
32
71
5
3
Standard
53
0
210
0
220
0
230
1
100
AcDbAlignedDimension
13
174.816573734
23
177.434123734
33
0
14
121.3333
24
179.253
34
0
50
90
100
AcDbRotatedDimension
0
ENDSEC
0
SECTION
2
OBJECTS
0
DICTIONARY
5
C
330
0
100
AcDbDictionary
281
1
3
ACAD_GROUP
350
D
0
DICTIONARY
5
D
330
C
100
AcDbDictionary
281
1
0
ENDSEC
0
EOF
